<svg xmlns="http://www.w3.org/2000/svg" version="1.1" xmlns:xlink="http://www.w3.org/1999/xlink" viewBox="0 0 200 200"><rect width="200" height="200" fill="url('#gradient')"></rect><defs><linearGradient id="gradient" gradientTransform="rotate(240 0.5 0.5)"><stop offset="0%" stop-color="#3ea9e6"></stop><stop offset="100%" stop-color="#ffffff"></stop></linearGradient></defs><g><g fill="#ede385" transform="matrix(2.4216216216216218,0,0,2.4216216216216218,14.37012783997767,117.20999597085489)" stroke="#000000" stroke-width="0.6"><path d="M13.12-7.47L13.12-6.82Q13.12-4.74 12.34-3.13Q11.57-1.53 10.15-0.67Q8.73 0.20 6.91 0.20Q5.10 0.20 3.69-0.64Q2.29-1.47 1.50-3.03Q0.71-4.58 0.67-6.59L0.67-6.59L0.67-7.39Q0.67-9.48 1.44-11.08Q2.21-12.68 3.64-13.54Q5.07-14.41 6.89-14.41L6.89-14.41Q8.70-14.41 10.12-13.55Q11.53-12.70 12.32-11.11Q13.11-9.52 13.12-7.47L13.12-7.47ZM9.63-6.76L9.63-7.41Q9.63-9.53 8.92-10.63Q8.21-11.73 6.89-11.73L6.89-11.73Q4.32-11.73 4.17-7.86L4.17-7.86L4.16-6.82Q4.16-4.73 4.85-3.60Q5.55-2.48 6.91-2.48L6.91-2.48Q8.21-2.48 8.92-3.58Q9.62-4.69 9.63-6.76L9.63-6.76ZM15.27-13.19L18.56-13.19L18.56-10.57L20.30-10.57L20.30-8.28L18.56-8.28L18.56-3.45Q18.56-2.85 18.78-2.62Q18.99-2.38 19.63-2.38L19.63-2.38Q20.12-2.38 20.45-2.44L20.45-2.44L20.45-0.09Q19.56 0.20 18.59 0.20L18.59 0.20Q16.89 0.20 16.08-0.61Q15.27-1.41 15.27-3.04L15.27-3.04L15.27-8.28L13.93-8.28L13.93-10.57L15.27-10.57L15.27-13.19ZM27.13-2.97L27.13-2.97Q27.13-3.39 26.69-3.64Q26.25-3.90 25.02-4.17Q23.79-4.44 22.99-4.89Q22.19-5.33 21.77-5.97Q21.35-6.60 21.35-7.42L21.35-7.42Q21.35-8.88 22.55-9.82Q23.75-10.76 25.69-10.76L25.69-10.76Q27.78-10.76 29.05-9.81Q30.32-8.87 30.32-7.32L30.32-7.32L27.02-7.32Q27.02-8.59 25.68-8.59L25.68-8.59Q25.17-8.59 24.81-8.31Q24.46-8.02 24.46-7.59L24.46-7.59Q24.46-7.15 24.89-6.88Q25.32-6.60 26.26-6.43Q27.21-6.25 27.92-6.01L27.92-6.01Q30.30-5.19 30.30-3.07L30.30-3.07Q30.30-1.62 29.02-0.71Q27.73 0.20 25.69 0.20L25.69 0.20Q24.34 0.20 23.27-0.29Q22.21-0.78 21.61-1.62Q21.02-2.46 21.02-3.39L21.02-3.39L24.09-3.39Q24.11-2.66 24.58-2.32Q25.05-1.98 25.78-1.98L25.78-1.98Q26.46-1.98 26.79-2.26Q27.13-2.53 27.13-2.97ZM36.95 0.20L36.95 0.20Q34.52 0.20 33.02-1.25Q31.51-2.71 31.51-5.03L31.51-5.03L31.51-5.30Q31.51-6.92 32.11-8.16Q32.71-9.40 33.87-10.08Q35.02-10.76 36.60-10.76L36.60-10.76Q38.83-10.76 40.12-9.38Q41.41-8.00 41.41-5.53L41.41-5.53L41.41-4.25L34.86-4.25Q35.04-3.36 35.63-2.85Q36.23-2.34 37.18-2.34L37.18-2.34Q38.74-2.34 39.62-3.44L39.62-3.44L41.12-1.66Q40.51-0.81 39.38-0.31Q38.25 0.20 36.95 0.20ZM36.58-8.22L36.58-8.22Q35.14-8.22 34.86-6.31L34.86-6.31L38.18-6.31L38.18-6.56Q38.20-7.35 37.78-7.79Q37.36-8.22 36.58-8.22ZM43.27-13.19L46.56-13.19L46.56-10.57L48.30-10.57L48.30-8.28L46.56-8.28L46.56-3.45Q46.56-2.85 46.78-2.62Q46.99-2.38 47.63-2.38L47.63-2.38Q48.12-2.38 48.45-2.44L48.45-2.44L48.45-0.09Q47.56 0.20 46.59 0.20L46.59 0.20Q44.89 0.20 44.08-0.61Q43.27-1.41 43.27-3.04L43.27-3.04L43.27-8.28L41.92-8.28L41.92-10.57L43.27-10.57L43.27-13.19ZM54.71 0.20L54.71 0.20Q52.28 0.20 50.77-1.25Q49.27-2.71 49.27-5.03L49.27-5.03L49.27-5.30Q49.27-6.92 49.87-8.16Q50.47-9.40 51.62-10.08Q52.77-10.76 54.36-10.76L54.36-10.76Q56.58-10.76 57.87-9.38Q59.16-8.00 59.16-5.53L59.16-5.53L59.16-4.25L52.62-4.25Q52.79-3.36 53.39-2.85Q53.98-2.34 54.93-2.34L54.93-2.34Q56.49-2.34 57.37-3.44L57.37-3.44L58.88-1.66Q58.26-0.81 57.13-0.31Q56.01 0.20 54.71 0.20ZM54.34-8.22L54.34-8.22Q52.89-8.22 52.62-6.31L52.62-6.31L55.94-6.31L55.94-6.56Q55.96-7.35 55.54-7.79Q55.12-8.22 54.34-8.22ZM65.60 0.20L65.60 0.20Q63.16 0.20 61.66-1.25Q60.16-2.71 60.16-5.03L60.16-5.03L60.16-5.30Q60.16-6.92 60.76-8.16Q61.36-9.40 62.51-10.08Q63.66-10.76 65.24-10.76L65.24-10.76Q67.47-10.76 68.76-9.38Q70.05-8.00 70.05-5.53L70.05-5.53L70.05-4.25L63.51-4.25Q63.68-3.36 64.28-2.85Q64.87-2.34 65.82-2.34L65.82-2.34Q67.38-2.34 68.26-3.44L68.26-3.44L69.77-1.66Q69.15-0.81 68.02-0.31Q66.89 0.20 65.60 0.20ZM65.22-8.22L65.22-8.22Q63.78-8.22 63.51-6.31L63.51-6.31L66.83-6.31L66.83-6.56Q66.85-7.35 66.43-7.79Q66.01-8.22 65.22-8.22Z"></path></g></g></svg>